<svg width="32" height="32" viewBox="0 0 32 32" fill="none" xmlns="http://www.w3.org/2000/svg">
<g clip-path="url(#clip0_3941_24038)">
<path d="M19.9775 19.9775L16.935 28.345C16.864 28.5364 16.7361 28.7014 16.5685 28.818C16.4009 28.9345 16.2016 28.997 15.9975 28.997C15.7934 28.997 15.5941 28.9345 15.4265 28.818C15.2589 28.7014 15.131 28.5364 15.06 28.345L12.0225 19.9775L3.65501 16.935C3.46363 16.864 3.29858 16.7361 3.18202 16.5685C3.06546 16.4009 3.00299 16.2016 3.00299 15.9975C3.00299 15.7934 3.06546 15.5941 3.18202 15.4265C3.29858 15.2589 3.46363 15.131 3.65501 15.06L12.0225 12.0225L15.065 3.655C15.136 3.46362 15.2639 3.29857 15.4315 3.18201C15.5991 3.06546 15.7984 3.00298 16.0025 3.00298C16.2066 3.00298 16.4059 3.06546 16.5735 3.18201C16.7411 3.29857 16.869 3.46362 16.94 3.655L19.9825 12.0225L28.35 15.065C28.5414 15.136 28.7064 15.2639 28.823 15.4315C28.9395 15.5991 29.002 15.7984 29.002 16.0025C29.002 16.2066 28.9395 16.4059 28.823 16.5735C28.7064 16.7411 28.5414 16.869 28.35 16.94L19.9775 19.9775Z" stroke="black" stroke-width="1.5" stroke-linecap="round" stroke-linejoin="round"/>
</g>
<defs>
<clipPath id="clip0_3941_24038">
<rect width="32" height="32" fill="white"/>
</clipPath>
</defs>
</svg>
